ffmpeg started on 2025-06-06 at 19:38:39
Report written to "D:\Convert\FFMetrics\reports\ssim_report-6.txt"
Log level: 32
Command line:
ffmpeg -hide_banner -nostdin -i "G:\\\xc0\xed\xe8\xec\xe5\\\xce\xed\xe3\xee\xe8\xed\xe3\xe8\\!_36_\xce\xf1\xe5\xed\xfc_2024\\DreamCast\\\xd0\xee\xed \xca\xe0\xec\xee\xed\xee\xf5\xe0\xf1\xe8 - \xcd\xe5\xe2\xec\xe5\xed\xff\xe5\xec\xfb\xe9 \xe4\xe5\xf2\xe5\xea\xf2\xe8\xe2\\\xd2\xc2-2\\DC_Kamonohashi_Ron_no_Kindan_Suiri_2nd_Season_01_Telegram_HEVC.mkv" -i "G:\\\xc0\xed\xe8\xec\xe5\\\xce\xed\xe3\xee\xe8\xed\xe3\xe8\\!_36_\xce\xf1\xe5\xed\xfc_2024\\DreamCast\\\xd0\xee\xed \xca\xe0\xec\xee\xed\xee\xf5\xe0\xf1\xe8 - \xcd\xe5\xe2\xec\xe5\xed\xff\xe5\xec\xfb\xe9 \xe4\xe5\xf2\xe5\xea\xf2\xe8\xe2\\\xd2\xc2-2\\DC_Kamonohashi_Ron_no_Kindan_Suiri_2nd_Season_01_Telegram.mp4" -lavfi "[0:v]settb=AVTB,setpts=PTS-STARTPTS,format=pix_fmts=yuv420p10,fps=24000/1001,scale=1920:1080:flags=bicubic[main];[1:v]settb=AVTB,setpts=PTS-STARTPTS,format=pix_fmts=yuv420p,fps=24000/1001,scale=1920:1080:flags=bicubic[ref];[main][ref]ssim=eof_action=endall:stats_file='D\\:/Convert/FFMetrics/logs/ssim_logfile-6.txt'" -f null -
Input #0, matroska,webm, from 'G:\Аниме\Онгоинги\!_36_Осень_2024\DreamCast\Рон Камонохаси - Невменяемый детектив\ТВ-2\DC_Kamonohashi_Ron_no_Kindan_Suiri_2nd_Season_01_Telegram_HEVC.mkv':
  Metadata:
    COMPATIBLE_BRANDS: isomiso2avc1mp41
    MAJOR_BRAND     : isom
    MINOR_VERSION   : 512
    ENCODER         : Lavf61.7.100
  Duration: 00:23:46.65, start: -0.021000, bitrate: 846 kb/s
  Stream #0:0: Video: hevc (Main 10), yuv420p10le(tv, bt709, progressive), 1920x1080 [SAR 1:1 DAR 16:9], 23.98 fps, 23.98 tbr, 1k tbn (default)
      Metadata:
        HANDLER_NAME    : VideoHandler
        VENDOR_ID       : [0][0][0][0]
        ENCODER         : Lavc61.19.100 libx265
        BPS             : 648946
        DURATION        : 00:23:46.549708333
        NUMBER_OF_FRAMES: 34203
        NUMBER_OF_BYTES : 115719211
        _STATISTICS_WRITING_APP: mkvpropedit v66.0.0 ('Josie') 64-bit
        _STATISTICS_WRITING_DATE_UTC: 2025-06-04 06:52:48
        _STATISTICS_TAGS: BPS DURATION NUMBER_OF_FRAMES NUMBER_OF_BYTES
  Stream #0:1: Audio: aac (LC), 48000 Hz, stereo, fltp (default)
      Metadata:
        HANDLER_NAME    : SoundHandler
        VENDOR_ID       : [0][0][0][0]
        ENCODER         : Lavc61.19.100 aac
        BPS             : 193659
        DURATION        : 00:23:46.645000000
        NUMBER_OF_FRAMES: 66875
        NUMBER_OF_BYTES : 34535417
        _STATISTICS_WRITING_APP: mkvpropedit v66.0.0 ('Josie') 64-bit
        _STATISTICS_WRITING_DATE_UTC: 2025-06-04 06:52:48
        _STATISTICS_TAGS: BPS DURATION NUMBER_OF_FRAMES NUMBER_OF_BYTES
Input #1, mov,mp4,m4a,3gp,3g2,mj2, from 'G:\Аниме\Онгоинги\!_36_Осень_2024\DreamCast\Рон Камонохаси - Невменяемый детектив\ТВ-2\DC_Kamonohashi_Ron_no_Kindan_Suiri_2nd_Season_01_Telegram.mp4':
  Metadata:
    major_brand     : isom
    minor_version   : 512
    compatible_brands: isomiso2avc1mp41
    encoder         : Lavf60.16.100
  Duration: 00:23:46.62, start: 0.000000, bitrate: 3562 kb/s
  Stream #1:0[0x1](und): Video: h264 (High) (avc1 / 0x31637661), yuv420p(tv, bt709, progressive), 1920x1080 [SAR 1:1 DAR 16:9], 3414 kb/s, 23.98 fps, 23.98 tbr, 24k tbn (default)
      Metadata:
        handler_name    : VideoHandler
        vendor_id       : [0][0][0][0]
        encoder         : Lavc60.31.102 h264_qsv
  Stream #1:1[0x2](und): Audio: aac (HE-AACv2) (mp4a / 0x6134706D), 48000 Hz, stereo, fltp, 144 kb/s (default)
      Metadata:
        handler_name    : SoundHandler
        vendor_id       : [0][0][0][0]
Stream mapping:
  Stream #0:0 (hevc) -> settb:default
  Stream #1:0 (h264) -> settb:default
  ssim:default -> Stream #0:0 (wrapped_avframe)
  Stream #0:1 -> #0:1 (aac (native) -> pcm_s16le (native))
Output #0, null, to 'pipe:':
  Metadata:
    COMPATIBLE_BRANDS: isomiso2avc1mp41
    MAJOR_BRAND     : isom
    MINOR_VERSION   : 512
    encoder         : Lavf61.7.100
  Stream #0:0: Video: wrapped_avframe, yuv420p10le(tv, bt709, progressive), 1920x1080 [SAR 1:1 DAR 16:9], q=2-31, 200 kb/s, 23.98 fps, 23.98 tbn
      Metadata:
        encoder         : Lavc61.19.100 wrapped_avframe
  Stream #0:1: Audio: pcm_s16le, 48000 Hz, stereo, s16, 1536 kb/s (default)
      Metadata:
        HANDLER_NAME    : SoundHandler
        VENDOR_ID       : [0][0][0][0]
        _STATISTICS_TAGS: BPS DURATION NUMBER_OF_FRAMES NUMBER_OF_BYTES
        BPS             : 193659
        DURATION        : 00:23:46.645000000
        NUMBER_OF_FRAMES: 66875
        NUMBER_OF_BYTES : 34535417
        _STATISTICS_WRITING_APP: mkvpropedit v66.0.0 ('Josie') 64-bit
        _STATISTICS_WRITING_DATE_UTC: 2025-06-04 06:52:48
        encoder         : Lavc61.19.100 pcm_s16le
frame=  191 fps=0.0 q=-0.0 size=N/A time=00:00:07.96 bitrate=N/A speed=15.6x    frame=  445 fps=431 q=-0.0 size=N/A time=00:00:18.56 bitrate=N/A speed=  18x    frame=  717 fps=465 q=-0.0 size=N/A time=00:00:29.90 bitrate=N/A speed=19.4x    frame=  984 fps=477 q=-0.0 size=N/A time=00:00:41.04 bitrate=N/A speed=19.9x    frame= 1245 fps=482 q=-0.0 size=N/A time=00:00:51.92 bitrate=N/A speed=20.1x    frame= 1525 fps=493 q=-0.0 size=N/A time=00:01:03.60 bitrate=N/A speed=20.6x    frame= 1789 fps=497 q=-0.0 size=N/A time=00:01:14.61 bitrate=N/A speed=20.7x    frame= 2072 fps=502 q=-0.0 size=N/A time=00:01:26.41 bitrate=N/A speed=20.9x    frame= 2344 fps=506 q=-0.0 size=N/A time=00:01:37.76 bitrate=N/A speed=21.1x    frame= 2642 fps=512 q=-0.0 size=N/A time=00:01:50.19 bitrate=N/A speed=21.4x    frame= 2926 fps=517 q=-0.0 size=N/A time=00:02:02.03 bitrate=N/A speed=21.5x    frame= 3160 fps=510 q=-0.0 size=N/A time=00:02:11.79 bitrate=N/A speed=21.3x    frame= 3378 fps=504 q=-0.0 size=N/A time=00:02:20.89 bitrate=N/A speed=  21x    frame= 3629 fps=503 q=-0.0 size=N/A time=00:02:31.35 bitrate=N/A speed=  21x    frame= 3881 fps=502 q=-0.0 size=N/A time=00:02:41.87 bitrate=N/A speed=20.9x    frame= 4145 fps=502 q=-0.0 size=N/A time=00:02:52.88 bitrate=N/A speed=20.9x    frame= 4392 fps=501 q=-0.0 size=N/A time=00:03:03.18 bitrate=N/A speed=20.9x    frame= 4579 fps=493 q=-0.0 size=N/A time=00:03:10.98 bitrate=N/A speed=20.6x    frame= 4794 fps=489 q=-0.0 size=N/A time=00:03:19.94 bitrate=N/A speed=20.4x    frame= 5008 fps=486 q=-0.0 size=N/A time=00:03:28.87 bitrate=N/A speed=20.3x    frame= 5253 fps=485 q=-0.0 size=N/A time=00:03:39.09 bitrate=N/A speed=20.2x    frame= 5539 fps=488 q=-0.0 size=N/A time=00:03:51.02 bitrate=N/A speed=20.4x    frame= 5747 fps=484 q=-0.0 size=N/A time=00:03:59.69 bitrate=N/A speed=20.2x    frame= 6006 fps=485 q=-0.0 size=N/A time=00:04:10.50 bitrate=N/A speed=20.2x    frame= 6287 fps=487 q=-0.0 size=N/A time=00:04:22.22 bitrate=N/A speed=20.3x    frame= 6584 fps=491 q=-0.0 size=N/A time=00:04:34.60 bitrate=N/A speed=20.5x    frame= 6855 fps=492 q=-0.0 size=N/A time=00:04:45.91 bitrate=N/A speed=20.5x    frame= 7115 fps=493 q=-0.0 size=N/A time=00:04:56.75 bitrate=N/A speed=20.6x    frame= 7363 fps=493 q=-0.0 size=N/A time=00:05:07.09 bitrate=N/A speed=20.5x    frame= 7632 fps=493 q=-0.0 size=N/A time=00:05:18.31 bitrate=N/A speed=20.6x    frame= 7878 fps=493 q=-0.0 size=N/A time=00:05:28.57 bitrate=N/A speed=20.6x    frame= 8152 fps=494 q=-0.0 size=N/A time=00:05:40.00 bitrate=N/A speed=20.6x    frame= 8433 fps=496 q=-0.0 size=N/A time=00:05:51.72 bitrate=N/A speed=20.7x    frame= 8693 fps=496 q=-0.0 size=N/A time=00:06:02.57 bitrate=N/A speed=20.7x    frame= 8947 fps=496 q=-0.0 size=N/A time=00:06:13.16 bitrate=N/A speed=20.7x    frame= 9203 fps=496 q=-0.0 size=N/A time=00:06:23.84 bitrate=N/A speed=20.7x    frame= 9442 fps=495 q=-0.0 size=N/A time=00:06:33.81 bitrate=N/A speed=20.6x    frame= 9700 fps=495 q=-0.0 size=N/A time=00:06:44.57 bitrate=N/A speed=20.6x    frame= 9968 fps=496 q=-0.0 size=N/A time=00:06:55.74 bitrate=N/A speed=20.7x    frame=10231 fps=496 q=-0.0 size=N/A time=00:07:06.71 bitrate=N/A speed=20.7x    frame=10487 fps=496 q=-0.0 size=N/A time=00:07:17.39 bitrate=N/A speed=20.7x    frame=10771 fps=497 q=-0.0 size=N/A time=00:07:29.24 bitrate=N/A speed=20.7x    frame=11066 fps=499 q=-0.0 size=N/A time=00:07:41.54 bitrate=N/A speed=20.8x    frame=11350 fps=500 q=-0.0 size=N/A time=00:07:53.38 bitrate=N/A speed=20.8x    frame=11605 fps=500 q=-0.0 size=N/A time=00:08:04.02 bitrate=N/A speed=20.8x    frame=11897 fps=501 q=-0.0 size=N/A time=00:08:16.20 bitrate=N/A speed=20.9x    frame=12165 fps=502 q=-0.0 size=N/A time=00:08:27.38 bitrate=N/A speed=20.9x    frame=12459 fps=503 q=-0.0 size=N/A time=00:08:39.64 bitrate=N/A speed=  21x    frame=12708 fps=503 q=-0.0 size=N/A time=00:08:50.02 bitrate=N/A speed=  21x    frame=12975 fps=503 q=-0.0 size=N/A time=00:09:01.16 bitrate=N/A speed=  21x    frame=13246 fps=503 q=-0.0 size=N/A time=00:09:12.46 bitrate=N/A speed=  21x    frame=13530 fps=504 q=-0.0 size=N/A time=00:09:24.31 bitrate=N/A speed=  21x    frame=13792 fps=504 q=-0.0 size=N/A time=00:09:35.24 bitrate=N/A speed=  21x    frame=14043 fps=504 q=-0.0 size=N/A time=00:09:45.71 bitrate=N/A speed=  21x    frame=14307 fps=504 q=-0.0 size=N/A time=00:09:56.72 bitrate=N/A speed=  21x    frame=14588 fps=505 q=-0.0 size=N/A time=00:10:08.44 bitrate=N/A speed=21.1x    frame=14831 fps=504 q=-0.0 size=N/A time=00:10:18.57 bitrate=N/A speed=  21x    frame=15104 fps=505 q=-0.0 size=N/A time=00:10:29.96 bitrate=N/A speed=21.1x    frame=15397 fps=506 q=-0.0 size=N/A time=00:10:42.18 bitrate=N/A speed=21.1x    frame=15668 fps=506 q=-0.0 size=N/A time=00:10:53.48 bitrate=N/A speed=21.1x    frame=15936 fps=506 q=-0.0 size=N/A time=00:11:04.66 bitrate=N/A speed=21.1x    frame=16236 fps=508 q=-0.0 size=N/A time=00:11:17.17 bitrate=N/A speed=21.2x    frame=16485 fps=507 q=-0.0 size=N/A time=00:11:27.56 bitrate=N/A speed=21.2x    frame=16753 fps=507 q=-0.0 size=N/A time=00:11:38.73 bitrate=N/A speed=21.2x    frame=17017 fps=508 q=-0.0 size=N/A time=00:11:49.75 bitrate=N/A speed=21.2x    frame=17291 fps=508 q=-0.0 size=N/A time=00:12:01.17 bitrate=N/A speed=21.2x    frame=17542 fps=508 q=-0.0 size=N/A time=00:12:11.64 bitrate=N/A speed=21.2x    frame=17825 fps=508 q=-0.0 size=N/A time=00:12:23.45 bitrate=N/A speed=21.2x    frame=18091 fps=508 q=-0.0 size=N/A time=00:12:34.54 bitrate=N/A speed=21.2x    frame=18368 fps=509 q=-0.0 size=N/A time=00:12:46.09 bitrate=N/A speed=21.2x    frame=18641 fps=509 q=-0.0 size=N/A time=00:12:57.48 bitrate=N/A speed=21.2x    frame=18949 fps=510 q=-0.0 size=N/A time=00:13:10.33 bitrate=N/A speed=21.3x    frame=19241 fps=511 q=-0.0 size=N/A time=00:13:22.51 bitrate=N/A speed=21.3x    frame=19535 fps=512 q=-0.0 size=N/A time=00:13:34.77 bitrate=N/A speed=21.3x    frame=19800 fps=512 q=-0.0 size=N/A time=00:13:45.82 bitrate=N/A speed=21.3x    frame=20068 fps=512 q=-0.0 size=N/A time=00:13:57.00 bitrate=N/A speed=21.3x    frame=20311 fps=511 q=-0.0 size=N/A time=00:14:07.13 bitrate=N/A speed=21.3x    frame=20561 fps=511 q=-0.0 size=N/A time=00:14:17.56 bitrate=N/A speed=21.3x    frame=20849 fps=512 q=-0.0 size=N/A time=00:14:29.57 bitrate=N/A speed=21.3x    frame=21096 fps=511 q=-0.0 size=N/A time=00:14:39.87 bitrate=N/A speed=21.3x    frame=21350 fps=511 q=-0.0 size=N/A time=00:14:50.47 bitrate=N/A speed=21.3x    frame=21592 fps=511 q=-0.0 size=N/A time=00:15:00.56 bitrate=N/A speed=21.3x    frame=21847 fps=510 q=-0.0 size=N/A time=00:15:11.20 bitrate=N/A speed=21.3x    frame=22124 fps=511 q=-0.0 size=N/A time=00:15:22.75 bitrate=N/A speed=21.3x    frame=22359 fps=510 q=-0.0 size=N/A time=00:15:32.55 bitrate=N/A speed=21.3x    frame=22595 fps=509 q=-0.0 size=N/A time=00:15:42.39 bitrate=N/A speed=21.2x    frame=22839 fps=509 q=-0.0 size=N/A time=00:15:52.57 bitrate=N/A speed=21.2x    frame=23126 fps=509 q=-0.0 size=N/A time=00:16:04.54 bitrate=N/A speed=21.2x    frame=23396 fps=510 q=-0.0 size=N/A time=00:16:15.80 bitrate=N/A speed=21.3x    frame=23618 fps=509 q=-0.0 size=N/A time=00:16:25.06 bitrate=N/A speed=21.2x    frame=23874 fps=509 q=-0.0 size=N/A time=00:16:35.74 bitrate=N/A speed=21.2x    frame=24177 fps=509 q=-0.0 size=N/A time=00:16:48.38 bitrate=N/A speed=21.2x    frame=24457 fps=510 q=-0.0 size=N/A time=00:17:00.06 bitrate=N/A speed=21.3x    frame=24721 fps=510 q=-0.0 size=N/A time=00:17:11.07 bitrate=N/A speed=21.3x    frame=24996 fps=510 q=-0.0 size=N/A time=00:17:22.54 bitrate=N/A speed=21.3x    frame=25288 fps=511 q=-0.0 size=N/A time=00:17:34.72 bitrate=N/A speed=21.3x    frame=25539 fps=510 q=-0.0 size=N/A time=00:17:45.18 bitrate=N/A speed=21.3x    frame=25833 fps=511 q=-0.0 size=N/A time=00:17:57.45 bitrate=N/A speed=21.3x    frame=26121 fps=512 q=-0.0 size=N/A time=00:18:09.46 bitrate=N/A speed=21.3x    frame=26391 fps=512 q=-0.0 size=N/A time=00:18:20.72 bitrate=N/A speed=21.3x    frame=26663 fps=512 q=-0.0 size=N/A time=00:18:32.06 bitrate=N/A speed=21.3x    frame=26935 fps=512 q=-0.0 size=N/A time=00:18:43.41 bitrate=N/A speed=21.4x    frame=27207 fps=512 q=-0.0 size=N/A time=00:18:54.75 bitrate=N/A speed=21.4x    frame=27480 fps=512 q=-0.0 size=N/A time=00:19:06.14 bitrate=N/A speed=21.4x    frame=27761 fps=513 q=-0.0 size=N/A time=00:19:17.86 bitrate=N/A speed=21.4x    frame=28034 fps=513 q=-0.0 size=N/A time=00:19:29.25 bitrate=N/A speed=21.4x    frame=28255 fps=512 q=-0.0 size=N/A time=00:19:38.46 bitrate=N/A speed=21.4x    frame=28438 fps=511 q=-0.0 size=N/A time=00:19:46.10 bitrate=N/A speed=21.3x    frame=28669 fps=510 q=-0.0 size=N/A time=00:19:55.77 bitrate=N/A speed=21.3x    frame=28915 fps=510 q=-0.0 size=N/A time=00:20:05.99 bitrate=N/A speed=21.3x    frame=29168 fps=509 q=-0.0 size=N/A time=00:20:16.54 bitrate=N/A speed=21.2x    frame=29402 fps=509 q=-0.0 size=N/A time=00:20:26.30 bitrate=N/A speed=21.2x    frame=29630 fps=508 q=-0.0 size=N/A time=00:20:35.81 bitrate=N/A speed=21.2x    frame=29877 fps=508 q=-0.0 size=N/A time=00:20:46.11 bitrate=N/A speed=21.2x    frame=30135 fps=508 q=-0.0 size=N/A time=00:20:56.88 bitrate=N/A speed=21.2x    frame=30399 fps=508 q=-0.0 size=N/A time=00:21:07.89 bitrate=N/A speed=21.2x    frame=30608 fps=507 q=-0.0 size=N/A time=00:21:16.60 bitrate=N/A speed=21.2x    frame=30877 fps=507 q=-0.0 size=N/A time=00:21:27.82 bitrate=N/A speed=21.2x    frame=31166 fps=508 q=-0.0 size=N/A time=00:21:39.88 bitrate=N/A speed=21.2x    frame=31416 fps=508 q=-0.0 size=N/A time=00:21:50.30 bitrate=N/A speed=21.2x    frame=31665 fps=507 q=-0.0 size=N/A time=00:22:00.69 bitrate=N/A speed=21.2x    frame=31927 fps=507 q=-0.0 size=N/A time=00:22:11.62 bitrate=N/A speed=21.2x    frame=32192 fps=508 q=-0.0 size=N/A time=00:22:22.67 bitrate=N/A speed=21.2x    frame=32455 fps=507 q=-0.0 size=N/A time=00:22:33.64 bitrate=N/A speed=21.2x    frame=32699 fps=507 q=-0.0 size=N/A time=00:22:43.82 bitrate=N/A speed=21.2x    frame=32965 fps=507 q=-0.0 size=N/A time=00:22:54.91 bitrate=N/A speed=21.2x    frame=33198 fps=507 q=-0.0 size=N/A time=00:23:04.63 bitrate=N/A speed=21.1x    frame=33429 fps=506 q=-0.0 size=N/A time=00:23:14.26 bitrate=N/A speed=21.1x    frame=33694 fps=506 q=-0.0 size=N/A time=00:23:25.32 bitrate=N/A speed=21.1x    frame=33946 fps=506 q=-0.0 size=N/A time=00:23:35.83 bitrate=N/A speed=21.1x    frame=34179 fps=506 q=-0.0 size=N/A time=00:23:45.54 bitrate=N/A speed=21.1x    [Parsed_ssim_10 @ 000001fcfc9b7d80] SSIM Y:0.995315 (23.293236) U:0.993160 (21.649225) V:0.994125 (22.309945) All:0.994758 (22.804771)
[out#0/null @ 000001fcfab65a00] video:14697KiB audio:267500KiB subtitle:0KiB other streams:0KiB global headers:0KiB muxing overhead: unknown
frame=34203 fps=506 q=-0.0 Lsize=N/A time=00:23:46.55 bitrate=N/A speed=21.1x    
